SplineFontDB: 3.2
FontName: DSESeriesB
FullName: DSE Series B
FamilyName: DSE Series B
Weight: Regular
Copyright: Copyright (c) 2022, Darren Embry
UComments: "2022-5-7: Created with FontForge (http://fontforge.org)"
Version: 001.000
ItalicAngle: 0
UnderlinePosition: -144
UnderlineWidth: 72
Ascent: 960
Descent: 192
InvalidEm: 0
LayerCount: 2
Layer: 0 0 "Back" 1
Layer: 1 0 "Fore" 0
XUID: [1021 323 -1642646731 11131862]
OS2Version: 0
OS2_WeightWidthSlopeOnly: 0
OS2_UseTypoMetrics: 1
CreationTime: 1651977848
ModificationTime: 1717803190
OS2TypoAscent: 0
OS2TypoAOffset: 1
OS2TypoDescent: 0
OS2TypoDOffset: 1
OS2TypoLinegap: 0
OS2WinAscent: 0
OS2WinAOffset: 1
OS2WinDescent: 0
OS2WinDOffset: 1
HheadAscent: 0
HheadAOffset: 1
HheadDescent: 0
HheadDOffset: 1
OS2Vendor: 'PfEd'
Lookup: 258 0 0 "kern" { "p4f3"  "p4f2"  "p4f1"  "p3f3"  "p3f2"  "p3f1"  "p2f3"  "p2f2"  "p2f1"  "p1f3"  "p1f2"  "p1f1"  } ['kern' ('latn' <'dflt' > ) ]
MarkAttachClasses: 1
DEI: 91125
KernClass2: 8+ 8 "p4f3"
 1 A
 1 L
 1 T
 1 V
 1 W
 1 Y
 4 four
 5 seven
 1 J
 1 T
 1 V
 1 W
 1 Y
 4 four
 5 seven
 38 {} 38 {} 38 {} 38 {} 38 {} 38 {} 38 {} 38 {} 38 {} 38 {} 38 {} 38 {} 38 {} 38 {} 38 {} 38 {} 38 {} 38 {} 38 {} 38 {} 38 {} 38 {} 38 {} 38 {} 38 {} 38 {} 38 {} 38 {} 38 {} 38 {} 38 {} 38 {} 38 {} 38 {} 38 {} 38 {} 38 {} 38 {} 38 {} 38 {} 38 {} 38 {} 38 {} 38 {} 38 {} 38 {} 38 {} 38 {} 38 {} 38 {} 38 {} 38 {} 38 {} 38 {} 38 {} 38 {} 38 {} 38 {} 38 {} 38 {} 38 {} 38 {} 38 {} 38 {}
KernClass2: 8+ 13 "p4f2"
 1 A
 1 L
 1 T
 1 V
 1 W
 1 Y
 4 four
 5 seven
 1 G
 1 O
 1 Q
 1 S
 1 X
 1 Z
 3 two
 5 three
 3 six
 5 eight
 4 nine
 4 zero

StartChar: A
Encoding: 65 65 0
Width: 410
Flags: HW
LayerCount: 2
Fore
SplineSet
311.041015625 0 m 5
 269.603515625 204 l 5
 140.396484375 204 l 5
 98.95703125 0 l 5
 1 0 l 5
 157 768 l 5
 253 768 l 5
 409 0 l 5
 311.041015625 0 l 5
250 300.509765625 m 5
 205 522.048828125 l 5
 159.896484375 300 l 5
 250 300.509765625 l 5
157 768 m 5
 253 768 l 5
 157 768 l 5
EndSplineSet
EndChar

StartChar: B
Encoding: 66 66 1
Width: 326
Flags: HW
LayerCount: 2
Fore
SplineSet
306.999023438 482.82421875 m 4
 304.336914062 464.918945312 298.322265625 447.676757812 289.271484375 432 c 4
 284.755859375 424.177734375 279.513671875 416.797851562 273.62109375 409.938476562 c 5
 280.952148438 402.021484375 287.366210938 393.327148438 292.751953125 384 c 4
 299.263671875 372.720703125 304.215820312 360.611328125 307.471679688 348.001953125 c 4
 326.637695312 273.771484375 330.131835938 196.361328125 317.729492188 120.705078125 c 4
 314.91796875 103.552734375 309.024414062 87.05078125 300.333984375 71.9990234375 c 4
 274.610351562 27.4453125 227.072265625 -0.0009765625 175.625976562 -0.0009765625 c 6
 1 0 l 5
 1 768 l 5
 164.564453125 768 l 6
 216.010742188 768 263.548828125 740.553710938 289.271484375 696 c 4
 298.322265625 680.323242188 304.336914062 663.081054688 306.999023438 645.17578125 c 4
 315 591.354492188 315 536.645507812 306.999023438 482.82421875 c 4
212.041992188 496.94140625 m 4
 218.65234375 541.40234375 218.65234375 586.596679688 212.041992188 631.05859375 c 4
 211.155273438 637.02734375 209.150390625 642.774414062 206.133789062 648 c 4
 197.55859375 662.8515625 181.712890625 672 164.564453125 672 c 6
 97 672 l 5
 97 456 l 5
 164.564453125 456 l 6
 181.712890625 456 197.55859375 465.1484375 206.133789062 480 c 4
 209.150390625 485.225585938 211.155273438 490.97265625 212.041992188 496.94140625 c 4
209.61328125 336 m 4
 201.0390625 350.8515625 185.193359375 360 168.043945312 360 c 6
 97 360 l 5
 97 96 l 5
 175.625976562 95.9990234375 l 6
 192.775390625 95.9990234375 208.62109375 105.147460938 217.1953125 119.999023438 c 4
 220.091796875 125.016601562 222.056640625 130.516601562 222.994140625 136.234375 c 4
 233.239257812 198.732421875 230.353515625 262.678710938 214.51953125 324.000976562 c 4
 213.434570312 328.205078125 211.784179688 332.241210938 209.61328125 336 c 4
EndSplineSet
EndChar

StartChar: V
Encoding: 86 86 2
Width: 356
Flags: HW
LayerCount: 2
Fore
SplineSet
257.524414062 768 m 5
 355 768 l 5
 220 1.2001953125 l 5
 136 1.2001953125 l 5
 1 768 l 5
 98.4755859375 768 l 5
 178 316.301757812 l 5
 257.524414062 768 l 5
EndSplineSet
EndChar

StartChar: S
Encoding: 83 83 3
Width: 326
Flags: HW
LayerCount: 2
Fore
SplineSet
325 600 m 5
 229 600 l 5
 229 627 l 6
 229 658.48046875 203.48046875 684 172 684 c 4
 140.520507812 684 115 658.48046875 115 627 c 4
 115 569.008789062 139.653320312 513.624023438 183.065429688 474.0859375 c 4
 273.591796875 390.287109375 324.999023438 272.905273438 325 150 c 4
 325 92.123046875 294.123046875 38.642578125 244 9.7041015625 c 4
 193.876953125 -19.234375 132.123046875 -19.234375 82 9.7041015625 c 4
 31.876953125 38.642578125 1 92.123046875 1 150 c 6
 1 192 l 5
 97 192 l 5
 97 149.868164062 l 6
 97 126.420898438 109.579101562 104.631835938 130 92.8427734375 c 4
 150.419921875 81.052734375 175.579101562 81.052734375 196 92.8427734375 c 4
 216.419921875 104.631835938 229 126.420898438 229 150 c 4
 228.999023438 246.274414062 188.654296875 338.221679688 117.608398438 403.862304688 c 4
 54.7158203125 461.55859375 19.0009765625 542.377929688 19 627 c 4
 19 711.499023438 87.5 780 172 780 c 4
 256.5 780 325 711.5 325 627 c 4
 325 618 325 609 325 600 c 5
EndSplineSet
EndChar

StartChar: C
Encoding: 67 67 4
Width: 326
Flags: HW
LayerCount: 2
Fore
SplineSet
173.9140625 780 m 0
 257.356445312 780 325 712.356445312 325 628.9140625 c 1
 229 628.9140625 l 1
 229 659.336914062 204.336914062 684 173.9140625 684 c 0
 147.25 684 124.413085938 664.90234375 119.696289062 638.658203125 c 0
 89.4345703125 470.233398438 89.4345703125 297.763671875 119.696289062 129.338867188 c 0
 122.565429688 113.376953125 132.32421875 99.4892578125 146.370117188 91.3798828125 c 0
 163.4140625 81.5400390625 184.413085938 81.5400390625 201.45703125 91.3798828125 c 0
 218.500976562 101.220703125 229.000976562 119.405273438 229.000976562 139.0859375 c 2
 229 180 l 1
 325 180 l 1
 325 139.0859375 l 2
 325 85.1083984375 296.203125 35.23046875 249.45703125 8.2412109375 c 0
 202.7109375 -18.7470703125 145.1171875 -18.7470703125 98.37109375 8.2412109375 c 0
 59.84375 30.4853515625 33.078125 68.578125 25.2099609375 112.361328125 c 0
 -7.0703125 292.013671875 -7.0703125 475.983398438 25.2099609375 655.63671875 c 0
 38.1455078125 727.618164062 100.779296875 780 173.9140625 780 c 0
EndSplineSet
EndChar

StartChar: D
Encoding: 68 68 5
Width: 326
Flags: HW
LayerCount: 2
Fore
SplineSet
305.731445312 141.470703125 m 4
 302.104492188 118.793945312 293.868164062 97.1015625 281.529296875 77.7333984375 c 4
 250.682617188 29.3154296875 197.248046875 0 139.838867188 0 c 6
 1 0 l 5
 1 768 l 5
 139.83984375 768 l 6
 199.860351562 768 255.321289062 735.979492188 285.33203125 684 c 4
 295.581054688 666.248046875 302.495117188 646.770507812 305.731445312 626.529296875 c 4
 331.422851562 465.86328125 331.422851562 302.135742188 305.731445312 141.470703125 c 4
207.498046875 624.625 m 4
 197.145507812 653.068359375 170.108398438 672 139.83984375 672 c 6
 97 672 l 5
 97 96 l 5
 139.838867188 96 l 6
 168.744140625 96 194.846679688 113.28515625 206.12890625 139.897460938 c 4
 208.401367188 145.259765625 210.015625 150.877929688 210.935546875 156.62890625 c 4
 235.021484375 307.252929688 235.021484375 460.747070312 210.936523438 611.37109375 c 4
 210.213867188 615.888671875 209.0625 620.327148438 207.498046875 624.625 c 4
EndSplineSet
EndChar

StartChar: E
Encoding: 69 69 6
Width: 290
Flags: HW
LayerCount: 2
Fore
SplineSet
289 0 m 5
 1 0 l 5
 1 768 l 5
 283 768 l 5
 283 672 l 5
 97 672 l 5
 97 468 l 5
 217 468 l 5
 217 372 l 5
 97 372 l 5
 97 96 l 5
 289 96 l 5
 289 0 l 5
EndSplineSet
EndChar

StartChar: F
Encoding: 70 70 7
Width: 290
Flags: HW
LayerCount: 2
Fore
SplineSet
1 768 m 5
 289 768 l 5
 289 672 l 5
 97 672 l 5
 97 468 l 5
 205 468 l 5
 205 372 l 5
 97 372 l 5
 97 0 l 5
 1 0 l 5
 1 768 l 5
EndSplineSet
EndChar

StartChar: G
Encoding: 71 71 8
Width: 326
Flags: HW
LayerCount: 2
Fore
SplineSet
173.9140625 780 m 4
 257.356445312 780 325 712.356445312 325 628.9140625 c 5
 229 628.9140625 l 5
 229 659.336914062 204.336914062 684 173.9140625 684 c 4
 147.25 684 124.413085938 664.90234375 119.696289062 638.658203125 c 4
 89.4345703125 470.234375 89.4345703125 297.763671875 119.696289062 129.338867188 c 4
 122.565429688 113.376953125 132.32421875 99.4892578125 146.370117188 91.3798828125 c 4
 163.4140625 81.5400390625 184.413085938 81.5400390625 201.458007812 91.3798828125 c 4
 218.501953125 101.220703125 229.000976562 119.40625 229.000976562 139.0859375 c 6
 229 288 l 5
 181 288 l 5
 181 384 l 5
 325 384 l 5
 325 139.0859375 l 6
 325 85.1083984375 296.203125 35.23046875 249.45703125 8.2421875 c 4
 202.7109375 -18.7470703125 145.1171875 -18.7470703125 98.37109375 8.2421875 c 4
 59.84375 30.4853515625 33.078125 68.578125 25.2099609375 112.361328125 c 4
 -7.0703125 292.013671875 -7.0703125 475.983398438 25.2099609375 655.63671875 c 4
 38.1455078125 727.618164062 100.779296875 780 173.9140625 780 c 4
EndSplineSet
EndChar

StartChar: H
Encoding: 72 72 9
Width: 326
Flags: HW
LayerCount: 2
Fore
SplineSet
1 0 m 5
 1 768 l 5
 97 768 l 5
 97 456 l 5
 229 456 l 5
 229 768 l 5
 325 768 l 5
 325 0 l 5
 229 0 l 5
 229 360 l 5
 97 360 l 5
 97 0 l 5
 1 0 l 5
EndSplineSet
EndChar

StartChar: N
Encoding: 78 78 10
Width: 326
Flags: HW
LayerCount: 2
Fore
SplineSet
325 0 m 5
 241 0 l 5
 97 456 l 5
 97 0 l 5
 1 0 l 5
 1 768 l 5
 99.1455078125 768 l 5
 229 356.795898438 l 5
 229 768 l 5
 325 768 l 5
 325 0 l 5
EndSplineSet
EndChar

StartChar: O
Encoding: 79 79 11
Width: 350
Flags: HW
LayerCount: 2
Fore
SplineSet
251.192382812 8.416015625 m 4
 204.043945312 -18.8046875 145.956054688 -18.8046875 98.8076171875 8.416015625 c 4
 59.912109375 30.8720703125 32.904296875 69.3427734375 24.99609375 113.553710938 c 4
 -6.9990234375 292.430664062 -6.9990234375 475.567382812 24.99609375 654.446289062 c 4
 37.9921875 727.102539062 101.190429688 780 175 780 c 4
 248.809570312 780 312.0078125 727.102539062 325.00390625 654.446289062 c 4
 356.999023438 475.568359375 356.999023438 292.432617188 325.00390625 113.555664062 c 4
 317.096679688 69.34375 290.087890625 30.8720703125 251.192382812 8.416015625 c 4
203.192382812 91.5537109375 m 4
 217.583984375 99.86328125 227.577148438 114.098632812 230.502929688 130.45703125 c 4
 260.499023438 298.154296875 260.499023438 469.844726562 230.502929688 637.54296875 c 4
 225.694335938 664.427734375 202.310546875 684 175 684 c 4
 147.690429688 684 124.306640625 664.427734375 119.497070312 637.543945312 c 4
 89.5009765625 469.84375 89.5009765625 298.153320312 119.497070312 130.455078125 c 4
 122.422851562 114.09765625 132.416015625 99.86328125 146.807617188 91.5537109375 c 4
 164.252929688 81.482421875 185.747070312 81.482421875 203.192382812 91.5537109375 c 4
EndSplineSet
EndChar

StartChar: R
Encoding: 82 82 12
Width: 326
Flags: HW
LayerCount: 2
Fore
SplineSet
97 456 m 5
 152.788085938 456 l 6
 186.149414062 456 215.142578125 478.918945312 222.84375 511.379882812 c 4
 231.05078125 545.979492188 231.051757812 582.018554688 222.84375 616.619140625 c 4
 215.142578125 649.081054688 186.150390625 672 152.788085938 672 c 6
 97 672 l 5
 97 456 l 5
152.788085938 360 m 6
 97 360.000976562 l 5
 97 0.0009765625 l 5
 1 0.0009765625 l 5
 1 768.000976562 l 5
 152.788085938 768.000976562 l 6
 197.344726562 768.000976562 240.076171875 750.301757812 271.58203125 718.794921875 c 4
 293.600585938 696.77734375 309.06640625 669.072265625 316.252929688 638.774414062 c 4
 322.064453125 614.275390625 324.999023438 589.180664062 324.999023438 564.000976562 c 4
 324.999023438 538.8203125 322.063476562 513.725585938 316.252929688 489.2265625 c 4
 306.544921875 448.30078125 281.837890625 412.504882812 247.009765625 388.911132812 c 5
 324.651367188 0.0009765625 l 5
 227.10546875 0.0009765625 l 5
 155.216796875 360.018554688 l 6
 154.407226562 360.0078125 153.596679688 360 152.788085938 360 c 6
EndSplineSet
EndChar

StartChar: I
Encoding: 73 73 13
Width: 98
Flags: HW
LayerCount: 2
Fore
SplineSet
1 0 m 5
 1 768 l 5
 97 768 l 5
 97 0 l 5
 1 0 l 5
EndSplineSet
EndChar

StartChar: J
Encoding: 74 74 14
Width: 336
Flags: HW
LayerCount: 2
Fore
SplineSet
170.416992188 84.068359375 m 4
 208.923828125 85.75 239.276367188 117.45703125 239.276367188 156 c 6
 239.276367188 768 l 5
 335.276367188 768 l 5
 335.276367188 156 l 6
 335.276367188 66.06640625 264.453125 -7.9169921875 174.604492188 -11.83984375 c 4
 88.3798828125 -15.6044921875 13.330078125 46.5771484375 1 131.999023438 c 5
 96.015625 145.713867188 l 5
 101.299804688 109.104492188 133.463867188 82.455078125 170.416992188 84.068359375 c 4
EndSplineSet
EndChar

StartChar: K
Encoding: 75 75 15
Width: 338
Flags: HW
LayerCount: 2
Fore
SplineSet
337 0 m 5
 237.497070312 0 l 5
 136.380859375 370.90625 l 5
 97 288 l 5
 97 0 l 5
 1 0 l 5
 1 768 l 5
 97 768 l 5
 97 511.745117188 l 5
 218.720703125 768 l 5
 325 768 l 5
 199.599609375 504 l 5
 337 0 l 5
EndSplineSet
EndChar

StartChar: L
Encoding: 76 76 16
Width: 290
Flags: HW
LayerCount: 2
Fore
SplineSet
1 768 m 5
 97 768 l 5
 97 90 l 5
 289 90 l 5
 289 0 l 5
 1 0 l 5
 1 768 l 5
EndSplineSet
EndChar

StartChar: M
Encoding: 77 77 17
Width: 374
Flags: HW
LayerCount: 2
Fore
SplineSet
373 768 m 5
 373 0 l 5
 277 0 l 5
 277 456 l 5
 187 168 l 5
 97 456 l 5
 97 0 l 5
 1 0 l 5
 1 768 l 5
 100.077148438 768 l 5
 187 489.846679688 l 5
 273.922851562 768 l 5
 373 768 l 5
EndSplineSet
EndChar

StartChar: zero
Encoding: 48 48 18
Width: 350
Flags: HW
LayerCount: 2
Fore
SplineSet
251.192382812 8.416015625 m 0
 204.043945312 -18.8046875 145.956054688 -18.8046875 98.8076171875 8.416015625 c 0
 59.912109375 30.8720703125 32.904296875 69.3427734375 24.99609375 113.553710938 c 0
 -6.9990234375 292.430664062 -6.9990234375 475.567382812 24.99609375 654.446289062 c 0
 37.9921875 727.102539062 101.190429688 780 175 780 c 0
 248.809570312 780 312.0078125 727.102539062 325.00390625 654.446289062 c 0
 356.999023438 475.568359375 356.999023438 292.432617188 325.00390625 113.555664062 c 0
 317.096679688 69.34375 290.087890625 30.8720703125 251.192382812 8.416015625 c 0
203.192382812 91.5537109375 m 0
 217.583984375 99.86328125 227.577148438 114.098632812 230.502929688 130.45703125 c 0
 260.499023438 298.154296875 260.499023438 469.844726562 230.502929688 637.54296875 c 0
 225.694335938 664.427734375 202.310546875 684 175 684 c 0
 147.690429688 684 124.306640625 664.427734375 119.497070312 637.543945312 c 4
 89.5009765625 469.84375 89.5009765625 298.153320312 119.497070312 130.455078125 c 0
 122.422851562 114.09765625 132.416015625 99.86328125 146.807617188 91.5537109375 c 0
 164.252929688 81.482421875 185.747070312 81.482421875 203.192382812 91.5537109375 c 0
EndSplineSet
EndChar

StartChar: P
Encoding: 80 80 19
Width: 326
Flags: HW
LayerCount: 2
Fore
SplineSet
300.077148438 439.383789062 m 4
 273.991210938 376.780273438 212.821289062 336 145 336 c 6
 97 336 l 5
 97 0 l 5
 1 0 l 5
 1 768 l 5
 152.786132812 768 l 6
 220.735351562 768 281.994140625 727.068359375 307.998046875 664.291015625 c 4
 311.424804688 656.017578125 314.184570312 647.484375 316.252929688 638.770507812 c 4
 332.028320312 572.265625 326.365234375 502.475585938 300.077148438 439.383789062 c 4
211.4609375 476.306640625 m 4
 229.9609375 520.705078125 233.9453125 569.81640625 222.844726562 616.615234375 c 4
 221.95703125 620.349609375 220.774414062 624.006835938 219.305664062 627.552734375 c 4
 208.161132812 654.458007812 181.907226562 672 152.786132812 672 c 6
 97 672 l 5
 97 432 l 5
 145 432 l 6
 174.065429688 432 200.28125 449.4765625 211.4609375 476.306640625 c 4
EndSplineSet
EndChar

StartChar: Q
Encoding: 81 81 20
Width: 350
Flags: HW
LayerCount: 2
Fore
SplineSet
119.49609375 637.543945312 m 4
 89.5 469.84375 89.5 298.153320312 119.49609375 130.455078125 c 4
 122.421875 114.09765625 132.415039062 99.86328125 146.806640625 91.5537109375 c 4
 157.247070312 85.5263671875 169.344726562 83.00390625 181.32421875 84.35546875 c 5
 144.999023438 138 l 5
 204.609375 178.380859375 l 5
 231.857421875 138.154296875 l 5
 260.494140625 303.424804688 260.036132812 472.428710938 230.502929688 637.54296875 c 4
 225.693359375 664.427734375 202.309570312 684 174.999023438 684 c 4
 147.689453125 684 124.305664062 664.427734375 119.49609375 637.543945312 c 4
24.99609375 654.446289062 m 4
 37.9912109375 727.102539062 101.189453125 780 174.999023438 780 c 4
 248.80859375 780 312.006835938 727.102539062 325.002929688 654.446289062 c 4
 356.998046875 475.568359375 356.998046875 292.432617188 325.002929688 113.5546875 c 4
 320.573242188 88.7900390625 310.081054688 65.505859375 294.461914062 45.7822265625 c 5
 330.609375 -7.619140625 l 5
 270.998046875 -48 l 5
 237.508789062 1.4111328125 l 5
 192.836914062 -18.6826171875 141.227539062 -16.076171875 98.806640625 8.416015625 c 4
 59.9111328125 30.8720703125 32.9033203125 69.34375 24.99609375 113.553710938 c 4
 -6.9990234375 292.430664062 -6.9990234375 475.567382812 24.99609375 654.446289062 c 4
EndSplineSet
EndChar

StartChar: T
Encoding: 84 84 21
Width: 290
Flags: HW
LayerCount: 2
Fore
SplineSet
1 768 m 5
 289 768 l 5
 289 672 l 5
 193 672 l 5
 193 0 l 5
 97 0 l 5
 97 672 l 5
 1 672 l 5
 1 768 l 5
EndSplineSet
EndChar

StartChar: U
Encoding: 85 85 22
Width: 326
Flags: HW
LayerCount: 2
Fore
SplineSet
1 768 m 5
 97 768 l 5
 97 150 l 6
 97 126.419921875 109.580078125 104.631835938 130.000976562 92.841796875 c 4
 150.420898438 81.052734375 175.580078125 81.052734375 196.000976562 92.841796875 c 4
 216.420898438 104.631835938 229 126.420898438 229 150 c 6
 229 768 l 5
 325 768 l 5
 325 150 l 6
 325 92.123046875 294.123046875 38.642578125 244.000976562 9.7041015625 c 4
 193.877929688 -19.234375 132.123046875 -19.234375 82.0009765625 9.7041015625 c 4
 31.8779296875 38.642578125 1 92.123046875 1 150 c 6
 1 768 l 5
EndSplineSet
EndChar

StartChar: W
Encoding: 87 87 23
Width: 482
Flags: HW
CounterMasks: 1 e0
LayerCount: 2
Fore
SplineSet
199.67578125 768 m 5
 282.32421875 768 l 5
 343.971679688 398.118164062 l 5
 384.427734375 768 l 5
 481 768 l 5
 397 0 l 5
 313 0 l 5
 241 432 l 5
 169 0 l 5
 85 0 l 5
 1 768 l 5
 97.572265625 768 l 5
 138.028320312 398.1171875 l 5
 199.67578125 768 l 5
EndSplineSet
EndChar

StartChar: X
Encoding: 88 88 24
Width: 356
Flags: HW
LayerCount: 2
Fore
SplineSet
6.9990234375 768 m 5
 107.84765625 768 l 5
 177.999023438 550.010742188 l 5
 248.151367188 768 l 5
 348.999023438 768 l 5
 228.423828125 393.322265625 l 5
 355 0 l 5
 254.15234375 0 l 5
 177.999023438 236.634765625 l 5
 101.84765625 0 l 5
 1 0 l 5
 127.575195312 393.322265625 l 5
 6.9990234375 768 l 5
EndSplineSet
EndChar

StartChar: Y
Encoding: 89 89 25
Width: 410
Flags: HW
LayerCount: 2
Fore
SplineSet
306.640625 768 m 5
 409 768 l 5
 253.000976562 348 l 5
 253.000976562 0 l 5
 157.000976562 0 l 5
 157.000976562 348 l 5
 1 768 l 5
 103.408203125 768 l 5
 205 494.484375 l 5
 306.640625 768 l 5
EndSplineSet
EndChar

StartChar: Z
Encoding: 90 90 26
Width: 326
Flags: HW
LayerCount: 2
Fore
SplineSet
99.400390625 96 m 5
 325 96 l 5
 325 0 l 5
 1 0 l 5
 1 108 l 5
 221.899414062 672 l 5
 19 672 l 5
 19 768 l 5
 325.000976562 768 l 5
 325 672 l 5
 99.400390625 96 l 5
EndSplineSet
EndChar

StartChar: one
Encoding: 49 49 27
Width: 158
Flags: HW
LayerCount: 2
Fore
SplineSet
1 719.982421875 m 5
 1 719.982421875 l 5
 31.59375 730.891601562 60.08203125 747.15625 85.076171875 768.00390625 c 5
 157.072265625 768 l 5
 157.072265625 0 l 5
 61.072265625 0 l 5
 61.072265625 660 l 5
 1.072265625 660 l 5
 1 719.982421875 l 5
EndSplineSet
EndChar

StartChar: two
Encoding: 50 50 28
Width: 326
Flags: HW
LayerCount: 2
Fore
SplineSet
97 618 m 5
 1 618 l 5
 1 707.469726562 73.5302734375 780 163 780 c 4
 252.470703125 780 325 707.469726562 325 618 c 4
 325 538.188476562 296.3671875 461.173828125 244.635742188 400.3984375 c 4
 170.436523438 313.235351562 122.185546875 207.810546875 104.53125 96.0009765625 c 5
 313 96 l 5
 313 0 l 5
 1 0 l 5
 0.9990234375 169.533203125 61.4521484375 333.530273438 171.532226562 462.624023438 c 4
 208.627929688 505.982421875 229 561.061523438 229 618 c 4
 229 654.450195312 199.451171875 684 163 684 c 4
 126.549804688 684 97 654.450195312 97 618 c 5
EndSplineSet
EndChar

StartChar: three
Encoding: 51 51 29
Width: 326
Flags: HW
LayerCount: 2
Fore
SplineSet
236.703125 9.0517578125 m 4
 188.0859375 -19.017578125 128.186523438 -19.017578125 79.5693359375 9.0517578125 c 4
 30.9521484375 37.12109375 1.001953125 88.9951171875 1.001953125 145.133789062 c 5
 97.001953125 145.133789062 l 5
 97.001953125 123.29296875 108.654296875 103.111328125 127.569335938 92.1904296875 c 4
 146.484375 81.26953125 169.788085938 81.26953125 188.703125 92.1904296875 c 4
 202.5390625 100.178710938 212.697265625 113.265625 217.004882812 128.649414062 c 4
 237.430664062 201.607421875 231.642578125 279.416992188 200.647460938 348.549804688 c 4
 190.974609375 370.12109375 169.538085938 384.002929688 145.8984375 384.002929688 c 6
 142.6171875 384 l 5
 109.000976562 384 l 5
 109.000976562 480 l 5
 142.6171875 480 l 6
 169.9765625 480 193.870117188 498.5078125 200.711914062 524.998046875 c 4
 209.720703125 559.890625 212.84765625 596.041992188 209.958984375 631.962890625 c 4
 209.28515625 640.331054688 206.758789062 648.444335938 202.561523438 655.71484375 c 4
 192.456054688 673.217773438 173.780273438 684 153.5703125 684 c 4
 122.328125 684 97 658.672851562 97 627.4296875 c 5
 1 627.4296875 l 5
 1 711.692382812 69.30859375 780 153.5703125 780 c 4
 208.078125 780 258.446289062 750.920898438 285.700195312 703.71484375 c 4
 297.020507812 684.106445312 303.834960938 662.224609375 305.649414062 639.65625 c 4
 309.393554688 593.091796875 305.34375 546.229492188 293.663085938 500.998046875 c 4
 287.159179688 475.80859375 274.458007812 452.646484375 256.759765625 433.666015625 c 5
 269.948242188 420.423828125 280.599609375 404.879882812 288.247070312 387.822265625 c 4
 328.424804688 298.206054688 335.926757812 197.34375 309.44921875 102.768554688 c 4
 298.377929688 63.2236328125 272.266601562 29.5849609375 236.703125 9.0517578125 c 4
EndSplineSet
EndChar

StartChar: four
Encoding: 52 52 30
Width: 374
Flags: HW
LayerCount: 2
Fore
SplineSet
1 192 m 1
 1 288 l 1
 229 768 l 1
 337 768 l 1
 337 282 l 1
 373 282 l 1
 373 192 l 1
 337 192 l 1
 337 0 l 1
 241 0 l 1
 241 192 l 1
 1 192 l 1
241 583.5 m 5
 97.787109375 282 l 1
 241 282 l 1
 241 583.5 l 5
EndSplineSet
EndChar

StartChar: five
Encoding: 53 53 31
Width: 338
Flags: HW
LayerCount: 2
Fore
SplineSet
313.001953125 672 m 5
 129.954101562 672 l 5
 124.647460938 507.95703125 l 5
 140.587890625 513.284179688 157.28515625 516 174.09375 516 c 4
 229.826171875 516 281.326171875 486.266601562 309.193359375 438 c 4
 316.858398438 424.723632812 322.524414062 410.390625 326.008789062 395.461914062 c 4
 349.713867188 293.8984375 334.784179688 187.1484375 284.124023438 95.9853515625 c 4
 247.083007812 29.330078125 176.8203125 -12.0068359375 100.564453125 -12.0068359375 c 4
 65.8095703125 -12.0068359375 31.5986328125 -3.3818359375 1 13.095703125 c 5
 46.5146484375 97.6201171875 l 5
 63.1259765625 88.67578125 81.697265625 83.9931640625 100.564453125 83.9931640625 c 4
 141.959960938 83.9931640625 180.1015625 106.43359375 200.209960938 142.6171875 c 4
 239.291015625 212.943359375 250.80859375 295.293945312 232.521484375 373.642578125 c 4
 231.180664062 379.383789062 229.001953125 384.89453125 226.0546875 390 c 4
 215.3359375 408.563476562 195.529296875 420 174.09375 420 c 4
 153.838867188 420 134.951171875 409.78125 123.935546875 392.913085938 c 5
 25.001953125 396 l 5
 37.001953125 768 l 5
 313.001953125 768 l 5
 313.001953125 672 l 5
EndSplineSet
EndChar

StartChar: six
Encoding: 54 54 32
Width: 333
Flags: HW
LayerCount: 2
Fore
SplineSet
103.083984375 307.99609375 m 1
 103.080078125 307.99609375 l 1
 94.986328125 250.958007812 94.986328125 193.064453125 103.080078125 136.028320312 c 0
 105.694335938 117.607421875 116.633789062 101.412109375 132.74609375 92.109375 c 0
 151.474609375 81.296875 174.548828125 81.296875 193.278320312 92.109375 c 0
 209.389648438 101.412109375 220.330078125 117.606445312 222.942382812 136.026367188 c 0
 231.036132812 193.064453125 231.036132812 250.959960938 222.942382812 307.998046875 c 0
 218.6953125 337.833007812 193.149414062 360 163.013671875 360 c 0
 132.877929688 360 107.33203125 337.83203125 103.083984375 307.99609375 c 1
241.280273438 8.9716796875 m 1
 192.848632812 -18.990234375 133.178710938 -18.990234375 84.748046875 8.9716796875 c 0
 43.08203125 33.02734375 14.79296875 74.908203125 8.0341796875 122.54296875 c 0
 -27.5546875 373.372070312 73.591796875 624.1015625 273.267578125 780.0234375 c 1
 332.350585938 704.358398438 l 1
 248.633789062 638.985351562 183.373046875 552.950195312 142.991210938 454.713867188 c 1
 149.635742188 455.571289062 156.322265625 456 163.013671875 456 c 0
 240.95703125 456 307.025390625 398.655273438 317.989257812 321.48828125 c 0
 327.353515625 255.502929688 327.353515625 188.526367188 317.989257812 122.540039062 c 0
 311.23046875 74.9052734375 282.943359375 33.0263671875 241.278320312 8.9716796875 c 1
 241.280273438 8.9716796875 l 1
EndSplineSet
EndChar

StartChar: seven
Encoding: 55 55 33
Width: 326
Flags: HW
LayerCount: 2
Fore
SplineSet
325 768 m 5
 324.993164062 671.99609375 l 5
 226.453125 461.671875 175.377929688 232.256835938 175.377929688 0 c 5
 79.3779296875 0 l 5
 79.3779296875 231.266601562 127.125976562 460.04296875 219.6328125 672.000976562 c 5
 1 672 l 5
 1 768 l 5
 325 768 l 5
EndSplineSet
EndChar

StartChar: eight
Encoding: 56 56 34
Width: 326
Flags: HW
LayerCount: 2
Fore
SplineSet
312.999023438 564 m 5
 312.999023438 552 l 1029
186.90234375 462.405273438 m 4
 198.374023438 469.028320312 206.583007812 480.114257812 209.572265625 493.020507812 c 4
 222.385742188 548.344726562 218.556640625 606.221679688 198.567382812 659.375 c 4
 192.99609375 674.189453125 178.826171875 684 162.999023438 684 c 4
 147.171875 684 133.001953125 674.190429688 127.431640625 659.375976562 c 4
 107.44140625 606.219726562 103.612304688 548.341796875 116.426757812 493.018554688 c 4
 119.415039062 480.114257812 127.624023438 469.028320312 139.096679688 462.405273438 c 4
 153.887695312 453.865234375 172.111328125 453.865234375 186.90234375 462.405273438 c 4
259.416992188 23.09375 m 4
 203.654296875 -23.697265625 122.344726562 -23.697265625 66.5810546875 23.09375 c 4
 43.8623046875 42.1572265625 27.3046875 67.52734375 18.9990234375 96 c 4
 -5 178.286132812 -5 265.712890625 18.9990234375 347.999023438 c 4
 25.7177734375 371.033203125 37.8623046875 392.119140625 54.3740234375 409.55078125 c 5
 38.9814453125 427.326171875 28.1904296875 448.5234375 22.9013671875 471.358398438 c 4
 5.8173828125 545.123046875 10.921875 622.293945312 37.5751953125 693.16796875 c 4
 57.2216796875 745.408203125 107.188476562 780 162.999023438 780 c 4
 218.810546875 780 268.778320312 745.407226562 288.422851562 693.166992188 c 4
 315.075195312 622.293945312 320.180664062 545.124023438 303.096679688 471.359375 c 4
 297.807617188 448.5234375 287.016601562 427.326171875 271.690429688 409.48046875 c 5
 288.202148438 392.00390625 300.298828125 370.970703125 306.998046875 348 c 4
 330.998046875 265.713867188 330.998046875 178.286132812 306.998046875 96 c 4
 298.6953125 67.5283203125 282.137695312 42.1572265625 259.416992188 23.09375 c 4
197.708984375 96.6337890625 m 5
 197.708007812 96.6337890625 l 5
 205.887695312 103.497070312 211.848632812 112.630859375 214.836914062 122.880859375 c 4
 233.717773438 187.611328125 233.717773438 256.387695312 214.836914062 321.120117188 c 4
 210.942382812 334.474609375 202.043945312 345.810546875 189.998046875 352.765625 c 4
 173.290039062 362.411132812 152.706054688 362.411132812 135.998046875 352.765625 c 4
 123.951171875 345.810546875 115.053710938 334.474609375 111.158203125 321.119140625 c 4
 92.279296875 256.387695312 92.279296875 187.611328125 111.158203125 122.880859375 c 4
 114.147460938 112.630859375 120.109375 103.497070312 128.288085938 96.6337890625 c 4
 148.36328125 79.7890625 177.634765625 79.7890625 197.708984375 96.6337890625 c 5
EndSplineSet
EndChar

StartChar: nine
Encoding: 57 57 35
Width: 333
Flags: HW
LayerCount: 2
Fore
SplineSet
230.266601562 460.999023438 m 5
 230.270507812 460.999023438 l 5
 238.364257812 518.037109375 238.364257812 575.930664062 230.270507812 632.966796875 c 4
 227.65625 651.387695312 216.716796875 667.583007812 200.604492188 676.885742188 c 4
 181.875976562 687.698242188 158.801757812 687.698242188 140.072265625 676.885742188 c 4
 123.9609375 667.583007812 113.020507812 651.388671875 110.408203125 632.96875 c 4
 102.314453125 575.930664062 102.314453125 518.03515625 110.408203125 460.997070312 c 4
 114.655273438 431.162109375 140.201171875 408.995117188 170.336914062 408.995117188 c 4
 200.47265625 408.995117188 226.018554688 431.163085938 230.266601562 460.999023438 c 5
92.0703125 760.0234375 m 5
 140.501953125 787.985351562 200.171875 787.985351562 248.602539062 760.0234375 c 4
 290.268554688 735.967773438 318.557617188 694.086914062 325.31640625 646.452148438 c 4
 360.905273438 395.623046875 259.758789062 144.893554688 60.0830078125 -11.0283203125 c 5
 1 64.63671875 l 5
 84.716796875 130.009765625 149.977539062 216.044921875 190.359375 314.28125 c 5
 183.71484375 313.423828125 177.028320312 312.995117188 170.336914062 312.995117188 c 4
 92.3935546875 312.995117188 26.3251953125 370.33984375 15.361328125 447.506835938 c 4
 5.9970703125 513.4921875 5.9970703125 580.46875 15.361328125 646.455078125 c 4
 22.1201171875 694.08984375 50.4072265625 735.96875 92.072265625 760.0234375 c 5
 92.0703125 760.0234375 l 5
EndSplineSet
EndChar

